<?xml version="1.0" encoding="UTF-8"?>
<svg id="_Layer_" data-name="&amp;lt;Layer&amp;gt;" xmlns="http://www.w3.org/2000/svg" viewBox="0 0 650.89 234.07">
  <defs>
    <style>
      .cls-1 {
        fill: #fff;
        stroke-width: 0px;
      }
    </style>
  </defs>
  <g>
    <path class="cls-1" d="M101.03,58.5h6.71V7.07c-4.31-1.57-8.77-2.67-13.41-2.67-22.19,0-40.23,18.49-40.23,40.68,0,.23,0,.46,0,.69-2.19-.46-4.44-.69-6.71-.69-18.49,0-33.98,15.04-33.98,33.53,0,4.15.75,8.2,2.21,12C6.05,96.67,0,107.26,0,118.85s6.05,22.18,15.62,28.23c-1.46,3.8-2.21,7.86-2.21,12,0,16.25,12.07,29.81,27.44,32.87-.14,9.55,2.9,19.28,9.01,26.69,7.68,9.31,19,14.65,31.05,14.65,10.32,0,19.7-3.96,26.82-10.38v-57.8c-15.29-3.12-26.82-16.66-26.82-32.85,0-3.71,3-6.71,6.71-6.71s6.71,3,6.71,6.71c0,8.73,5.62,16.1,13.41,18.88v-79.23h-6.71c-3.71,0-6.71-3-6.71-6.71s3-6.71,6.71-6.71ZM75.03,186.71c-7.85,7.87-20.61,7.87-28.46,0-7.76-7.73-7.95-20.51.01-28.45,2.63-2.61,6.87-2.61,9.48.01,2.61,2.62,2.61,6.87-.01,9.48-2.61,2.6-2.62,6.87,0,9.47,2.54,2.55,6.97,2.54,9.48.01,2.62-2.62,6.87-2.62,9.48-.01,2.63,2.61,2.63,6.86.01,9.48ZM75.01,119.67c-2.65,2.63-6.89,2.59-9.48-.01-2.61-2.62-2.61-6.87.01-9.48,2.61-2.6,2.62-6.87,0-9.47-2.54-2.55-6.97-2.54-9.48-.01-2.61,2.63-6.85,2.63-9.48.01-2.63-2.61-2.63-6.86-.01-9.48,7.58-7.61,20.88-7.61,28.46,0,7.76,7.73,7.95,20.51-.01,28.45Z"/>
    <path class="cls-1" d="M228.89,118.85c0-11.58-6.05-22.18-15.62-28.23,1.46-3.8,2.21-7.86,2.21-12,0-18.49-15.49-33.53-33.98-33.53-2.27,0-4.52.23-6.71.69,0-.23,0-.46,0-.69,0-22.19-18.05-40.68-40.23-40.68-4.64,0-9.1,1.09-13.41,2.67v51.42h6.71c3.71,0,6.71,3,6.71,6.71s-3,6.71-6.71,6.71h-6.71v79.23c7.79-2.78,13.41-10.15,13.41-18.88,0-3.71,3-6.71,6.71-6.71s6.71,3,6.71,6.71c0,16.19-11.54,29.73-26.82,32.85v57.8c7.12,6.42,16.5,10.38,26.82,10.38,12.03,0,23.33-5.32,31.01-14.59,6.14-7.42,9.19-17.18,9.05-26.75,15.37-3.05,27.44-16.62,27.44-32.87,0-4.15-.75-8.21-2.21-12,9.57-6.05,15.63-16.65,15.63-28.23ZM153.87,91.21c7.56-7.58,20.86-7.6,28.45.01,2.61,2.62,2.61,6.87-.01,9.48-2.63,2.61-6.87,2.61-9.48-.01-2.51-2.53-6.95-2.53-9.47,0-2.67,2.65-2.59,6.92-.01,9.48,2.63,2.61,2.63,6.86.01,9.48-2.59,2.61-6.84,2.65-9.48.01-7.87-7.85-7.87-20.61,0-28.46ZM182.3,186.72c-7.73,7.76-20.51,7.95-28.45-.01-2.61-2.62-2.61-6.87.01-9.48,2.63-2.61,6.87-2.61,9.48.01,2.51,2.53,6.95,2.53,9.47,0,2.67-2.65,2.59-6.92.01-9.48-2.63-2.61-2.63-6.86-.01-9.48,2.62-2.63,6.86-2.62,9.48-.01,7.87,7.85,7.87,20.61,0,28.46Z"/>
  </g>
  <g>
    <path class="cls-1" d="M649.1,145.44c-.67-.8-16.71-19.8-40.27-39.06-32.29-26.4-61.85-39.78-87.86-39.78s-55.58,13.38-87.86,39.78c-23.56,19.26-39.6,38.26-40.27,39.06-2.38,2.83-2.38,6.96,0,9.79.67.8,16.71,19.8,40.27,39.06,32.29,26.4,61.85,39.78,87.86,39.78s55.58-13.38,87.86-39.78c23.56-19.26,39.6-38.26,40.27-39.06,2.38-2.83,2.38-6.96,0-9.79ZM520.97,201.09c-27.98,0-50.75-22.77-50.75-50.75s22.77-50.75,50.75-50.75,50.75,22.77,50.75,50.75-22.77,50.75-50.75,50.75Z"/>
    <path class="cls-1" d="M604.94,77.01l22.25-22.25c2.97-2.97,2.97-7.79,0-10.77-2.97-2.97-7.79-2.97-10.77,0l-22.25,22.25c-2.97,2.97-2.97,7.79,0,10.77,2.97,2.97,7.79,2.97,10.77,0Z"/>
    <path class="cls-1" d="M520.97,46.69c4.2,0,7.61-3.41,7.61-7.61V7.61c0-4.2-3.41-7.61-7.61-7.61s-7.61,3.41-7.61,7.61v31.47c0,4.2,3.41,7.61,7.61,7.61Z"/>
    <path class="cls-1" d="M436.99,77.01c2.97,2.97,7.79,2.97,10.77,0,2.97-2.97,2.97-7.79,0-10.77l-22.25-22.25c-2.97-2.97-7.79-2.97-10.77,0-2.97,2.97-2.97,7.79,0,10.77l22.25,22.25Z"/>
    <path class="cls-1" d="M520.97,135.11c-5.61,0-10.15,4.54-10.15,10.15,0,2.57.96,4.91,2.54,6.7v5.99c0,4.2,3.41,7.61,7.61,7.61s7.61-3.41,7.61-7.61v-5.99c1.57-1.79,2.54-4.13,2.54-6.7,0-5.61-4.54-10.15-10.15-10.15Z"/>
    <circle class="cls-1" cx="520.97" cy="150.34" r="17.92"/>
  </g>
</svg>