<?xml version="1.0" encoding="UTF-8"?>
<!-- 由 eye-01.svg 改作：移除眼睛上方的三道光芒線條，viewBox 裁到眼睛本體 -->
<svg xmlns="http://www.w3.org/2000/svg" viewBox="0 66.6 259.84 167.47">
  <defs>
    <style>
      .cls-1 {
        fill: #fff;
        stroke-width: 0px;
      }
    </style>
  </defs>
  <path class="cls-1" d="M258.06,145.44c-.67-.8-16.71-19.8-40.27-39.06-32.29-26.4-61.85-39.78-87.86-39.78s-55.58,13.38-87.86,39.78C18.49,125.64,2.45,144.64,1.78,145.44c-2.38,2.83-2.38,6.96,0,9.79.67.8,16.71,19.8,40.27,39.06,32.29,26.4,61.85,39.78,87.86,39.78s55.58-13.38,87.86-39.78c23.56-19.26,39.6-38.26,40.27-39.06,2.38-2.83,2.38-6.96,0-9.79ZM129.92,201.09c-27.98,0-50.75-22.77-50.75-50.75s22.77-50.75,50.75-50.75,50.75,22.77,50.75,50.75-22.77,50.75-50.75,50.75Z"/>
  <path class="cls-1" d="M129.92,135.11c-5.61,0-10.15,4.54-10.15,10.15,0,2.57.96,4.91,2.54,6.7v5.99c0,4.2,3.41,7.61,7.61,7.61s7.61-3.41,7.61-7.61v-5.99c1.57-1.79,2.54-4.13,2.54-6.7,0-5.61-4.54-10.15-10.15-10.15Z"/>
  <circle class="cls-1" cx="129.92" cy="150.34" r="17.92"/>
</svg>
